<?xml version="1.0" encoding="UTF-8" standalone="no"?>
<!DOCTYPE svg PUBLIC "-//W3C//DTD SVG 1.1//EN"
 "http://www.w3.org/Graphics/SVG/1.1/DTD/svg11.dtd">
<!-- Generated by graphviz version 2.36.0 (20140111.2315)
 -->
<!-- Title: G Pages: 1 -->
<svg width="2442pt" height="497pt"
 viewBox="0.00 0.00 2442.00 497.00" xmlns="http://www.w3.org/2000/svg" xmlns:xlink="http://www.w3.org/1999/xlink">
<g id="graph0" class="graph" transform="scale(1 1) rotate(0) translate(4 493)">
<title>G</title>
<polygon fill="white" stroke="none" points="-4,4 -4,-493 2438,-493 2438,4 -4,4"/>
<g id="clust1" class="cluster"><title>clusterNS</title>
<polygon fill="none" stroke="white" points="8,-83 8,-481 808,-481 808,-83 8,-83"/>
</g>
<g id="clust3" class="cluster"><title>clusterS</title>
<polygon fill="lightgrey" stroke="lightgrey" points="344,-91 344,-240 665,-240 665,-91 344,-91"/>
<text text-anchor="middle" x="504.5" y="-224.8" font-family="Helvetica,sans-Serif" font-size="14.00">South America</text>
</g>
<g id="clust2" class="cluster"><title>clusterN</title>
<polygon fill="lightgrey" stroke="lightgrey" points="16,-248 16,-473 800,-473 800,-248 16,-248"/>
<text text-anchor="middle" x="408" y="-457.8" font-family="Helvetica,sans-Serif" font-size="14.00">North America</text>
</g>
<g id="clust4" class="cluster"><title>clusterEA</title>
<polygon fill="none" stroke="white" points="816,-239 816,-458 2426,-458 2426,-239 816,-239"/>
</g>
<g id="clust5" class="cluster"><title>clusterE</title>
<polygon fill="lightgrey" stroke="lightgrey" points="824,-247 824,-414 1524,-414 1524,-247 824,-247"/>
<text text-anchor="middle" x="1174" y="-398.8" font-family="Helvetica,sans-Serif" font-size="14.00">Europe</text>
</g>
<g id="clust6" class="cluster"><title>clusterA</title>
<polygon fill="lightgrey" stroke="lightgrey" points="1532,-247 1532,-450 2418,-450 2418,-247 1532,-247"/>
<text text-anchor="middle" x="1975" y="-434.8" font-family="Helvetica,sans-Serif" font-size="14.00">Asia</text>
</g>
<g id="clust7" class="cluster"><title>clusterF</title>
<polygon fill="lightgrey" stroke="lightgrey" points="1045,-8 1045,-231 1407,-231 1407,-8 1045,-8"/>
<text text-anchor="middle" x="1226" y="-215.8" font-family="Helvetica,sans-Serif" font-size="14.00">Africa</text>
</g>
<g id="clust8" class="cluster"><title>clusterU</title>
<polygon fill="lightgrey" stroke="lightgrey" points="1938,-118 1938,-231 2411,-231 2411,-118 1938,-118"/>
<text text-anchor="middle" x="2174.5" y="-215.8" font-family="Helvetica,sans-Serif" font-size="14.00">Australia</text>
</g>
<!-- n1 -->
<g id="node1" class="node"><title>n1</title>
<ellipse fill="white" stroke="white" cx="63" cy="-405" rx="38.1938" ry="18"/>
<text text-anchor="middle" x="63" y="-401.3" font-family="Helvetica,sans-Serif" font-size="14.00">Alaska</text>
</g>
<!-- n2 -->
<g id="node2" class="node"><title>n2</title>
<ellipse fill="white" stroke="white" cx="160" cy="-385" rx="39.7935" ry="18"/>
<text text-anchor="middle" x="160" y="-381.3" font-family="Helvetica,sans-Serif" font-size="14.00">Alberta</text>
</g>
<!-- n1&#45;&#45;n2 -->
<g id="edge1" class="edge"><title>n1&#45;&#45;n2</title>
<path fill="none" stroke="blue" d="M98.2972,-397.78C106.588,-396.034 115.462,-394.166 123.794,-392.412"/>
</g>
<!-- n6 -->
<g id="node6" class="node"><title>n6</title>
<ellipse fill="white" stroke="white" cx="505" cy="-415" rx="56.6372" ry="26.7407"/>
<text text-anchor="middle" x="505" y="-418.8" font-family="Helvetica,sans-Serif" font-size="14.00">Northwest</text>
<text text-anchor="middle" x="505" y="-403.8" font-family="Helvetica,sans-Serif" font-size="14.00">Territory</text>
</g>
<!-- n1&#45;&#45;n6 -->
<g id="edge2" class="edge"><title>n1&#45;&#45;n6</title>
<path fill="none" stroke="blue" d="M99.7895,-410.104C106.492,-410.88 113.45,-411.567 120,-412 236.582,-419.715 373.503,-418.273 448.282,-416.596"/>
</g>
<!-- n2&#45;&#45;n6 -->
<g id="edge3" class="edge"><title>n2&#45;&#45;n6</title>
<path fill="none" stroke="blue" d="M199.018,-388.325C259.804,-393.642 379.139,-404.079 449.157,-410.203"/>
</g>
<!-- n7 -->
<g id="node7" class="node"><title>n7</title>
<ellipse fill="white" stroke="white" cx="382" cy="-367" rx="40.0939" ry="18"/>
<text text-anchor="middle" x="382" y="-363.3" font-family="Helvetica,sans-Serif" font-size="14.00">Ontario</text>
</g>
<!-- n2&#45;&#45;n7 -->
<g id="edge4" class="edge"><title>n2&#45;&#45;n7</title>
<path fill="none" stroke="blue" d="M199.569,-382.654C230.948,-380.652 276.366,-377.539 316,-374 324.705,-373.223 334.054,-372.28 342.872,-371.341"/>
</g>
<!-- n9 -->
<g id="node9" class="node"><title>n9</title>
<ellipse fill="white" stroke="white" cx="267" cy="-328" rx="48.5816" ry="37.4533"/>
<text text-anchor="middle" x="267" y="-339.3" font-family="Helvetica,sans-Serif" font-size="14.00">Western</text>
<text text-anchor="middle" x="267" y="-324.3" font-family="Helvetica,sans-Serif" font-size="14.00">United</text>
<text text-anchor="middle" x="267" y="-309.3" font-family="Helvetica,sans-Serif" font-size="14.00">States</text>
</g>
<!-- n2&#45;&#45;n9 -->
<g id="edge5" class="edge"><title>n2&#45;&#45;n9</title>
<path fill="none" stroke="blue" d="M186.15,-371.347C198.284,-364.76 213.123,-356.705 226.701,-349.334"/>
</g>
<!-- n3 -->
<g id="node3" class="node"><title>n3</title>
<ellipse fill="white" stroke="white" cx="382" cy="-283" rx="48.1667" ry="26.7407"/>
<text text-anchor="middle" x="382" y="-286.8" font-family="Helvetica,sans-Serif" font-size="14.00">Central</text>
<text text-anchor="middle" x="382" y="-271.8" font-family="Helvetica,sans-Serif" font-size="14.00">America</text>
</g>
<!-- n4 -->
<g id="node4" class="node"><title>n4</title>
<ellipse fill="white" stroke="white" cx="505" cy="-293" rx="45.9239" ry="37.4533"/>
<text text-anchor="middle" x="505" y="-304.3" font-family="Helvetica,sans-Serif" font-size="14.00">Eastern</text>
<text text-anchor="middle" x="505" y="-289.3" font-family="Helvetica,sans-Serif" font-size="14.00">United</text>
<text text-anchor="middle" x="505" y="-274.3" font-family="Helvetica,sans-Serif" font-size="14.00">States</text>
</g>
<!-- n3&#45;&#45;n4 -->
<g id="edge9" class="edge"><title>n3&#45;&#45;n4</title>
<path fill="none" stroke="blue" d="M429.782,-286.866C439.358,-287.658 449.419,-288.489 458.933,-289.275"/>
</g>
<!-- s4 -->
<g id="node13" class="node"><title>s4</title>
<ellipse fill="white" stroke="white" cx="505" cy="-191" rx="53.8905" ry="18"/>
<text text-anchor="middle" x="505" y="-187.3" font-family="Helvetica,sans-Serif" font-size="14.00">Venezuela</text>
</g>
<!-- n3&#45;&#45;s4 -->
<g id="edge10" class="edge"><title>n3&#45;&#45;s4</title>
<path fill="none" stroke="red" d="M411.064,-261.662C432.706,-245.207 462.211,-222.774 482.123,-207.634"/>
</g>
<!-- n8 -->
<g id="node8" class="node"><title>n8</title>
<ellipse fill="white" stroke="white" cx="623" cy="-332" rx="42.7926" ry="18"/>
<text text-anchor="middle" x="623" y="-328.3" font-family="Helvetica,sans-Serif" font-size="14.00">Quebec</text>
</g>
<!-- n4&#45;&#45;n8 -->
<g id="edge16" class="edge"><title>n4&#45;&#45;n8</title>
<path fill="none" stroke="blue" d="M547.879,-307.08C561.377,-311.618 576.141,-316.582 588.914,-320.876"/>
</g>
<!-- n5 -->
<g id="node5" class="node"><title>n5</title>
<ellipse fill="white" stroke="white" cx="738" cy="-368" rx="53.0913" ry="18"/>
<text text-anchor="middle" x="738" y="-364.3" font-family="Helvetica,sans-Serif" font-size="14.00">Greenland</text>
</g>
<!-- e2 -->
<g id="node15" class="node"><title>e2</title>
<ellipse fill="white" stroke="white" cx="873" cy="-365" rx="40.0939" ry="18"/>
<text text-anchor="middle" x="873" y="-361.3" font-family="Helvetica,sans-Serif" font-size="14.00">Iceland</text>
</g>
<!-- n5&#45;&#45;e2 -->
<g id="edge18" class="edge"><title>n5&#45;&#45;e2</title>
<path fill="none" stroke="red" d="M791.183,-366.823C805.011,-366.511 819.705,-366.18 832.718,-365.886"/>
</g>
<!-- n6&#45;&#45;n5 -->
<g id="edge15" class="edge"><title>n6&#45;&#45;n5</title>
<path fill="none" stroke="blue" d="M557.266,-404.569C597.541,-396.375 653.094,-385.072 691.736,-377.209"/>
</g>
<!-- n7&#45;&#45;n4 -->
<g id="edge11" class="edge"><title>n7&#45;&#45;n4</title>
<path fill="none" stroke="blue" d="M406.617,-352.556C423.949,-341.957 447.81,-327.364 467.576,-315.276"/>
</g>
<!-- n7&#45;&#45;n5 -->
<g id="edge12" class="edge"><title>n7&#45;&#45;n5</title>
<path fill="none" stroke="blue" d="M422.578,-367.112C486.627,-367.293 613.016,-367.65 684.505,-367.852"/>
</g>
<!-- n7&#45;&#45;n6 -->
<g id="edge13" class="edge"><title>n7&#45;&#45;n6</title>
<path fill="none" stroke="blue" d="M412.6,-378.742C427.292,-384.571 445.309,-391.717 461.45,-398.121"/>
</g>
<!-- n7&#45;&#45;n8 -->
<g id="edge14" class="edge"><title>n7&#45;&#45;n8</title>
<path fill="none" stroke="blue" d="M420.607,-361.493C464.645,-355.044 537.272,-344.408 582.224,-337.825"/>
</g>
<!-- n8&#45;&#45;n5 -->
<g id="edge17" class="edge"><title>n8&#45;&#45;n5</title>
<path fill="none" stroke="blue" d="M657.598,-342.704C670.479,-346.808 685.272,-351.52 698.572,-355.757"/>
</g>
<!-- n9&#45;&#45;n3 -->
<g id="edge6" class="edge"><title>n9&#45;&#45;n3</title>
<path fill="none" stroke="blue" d="M310.72,-310.987C321.22,-306.806 332.396,-302.355 342.674,-298.262"/>
</g>
<!-- n9&#45;&#45;n4 -->
<g id="edge7" class="edge"><title>n9&#45;&#45;n4</title>
<path fill="none" stroke="blue" d="M315.914,-328.344C348.386,-327.773 392.118,-325.432 430,-318 440.912,-315.859 452.425,-312.525 463.036,-308.981"/>
</g>
<!-- n9&#45;&#45;n7 -->
<g id="edge8" class="edge"><title>n9&#45;&#45;n7</title>
<path fill="none" stroke="blue" d="M311.689,-343.078C324.358,-347.451 337.935,-352.137 349.685,-356.192"/>
</g>
<!-- s1 -->
<g id="node10" class="node"><title>s1</title>
<ellipse fill="white" stroke="white" cx="505" cy="-117" rx="49.2915" ry="18"/>
<text text-anchor="middle" x="505" y="-113.3" font-family="Helvetica,sans-Serif" font-size="14.00">Argentina</text>
</g>
<!-- s2 -->
<g id="node11" class="node"><title>s2</title>
<ellipse fill="white" stroke="white" cx="623" cy="-155" rx="33.5952" ry="18"/>
<text text-anchor="middle" x="623" y="-151.3" font-family="Helvetica,sans-Serif" font-size="14.00">Brazil</text>
</g>
<!-- s1&#45;&#45;s2 -->
<g id="edge23" class="edge"><title>s1&#45;&#45;s2</title>
<path fill="none" stroke="blue" d="M542.385,-128.919C558.996,-134.361 578.367,-140.706 593.842,-145.776"/>
</g>
<!-- f5 -->
<g id="node37" class="node"><title>f5</title>
<ellipse fill="white" stroke="white" cx="1091" cy="-162" rx="36.5405" ry="26.7407"/>
<text text-anchor="middle" x="1091" y="-165.8" font-family="Helvetica,sans-Serif" font-size="14.00">North</text>
<text text-anchor="middle" x="1091" y="-150.8" font-family="Helvetica,sans-Serif" font-size="14.00">Africa</text>
</g>
<!-- s2&#45;&#45;f5 -->
<g id="edge24" class="edge"><title>s2&#45;&#45;f5</title>
<path fill="none" stroke="red" d="M657.14,-155.498C741.977,-156.772 966.475,-160.144 1054.18,-161.462"/>
</g>
<!-- s3 -->
<g id="node12" class="node"><title>s3</title>
<ellipse fill="white" stroke="white" cx="382" cy="-154" rx="29.795" ry="18"/>
<text text-anchor="middle" x="382" y="-150.3" font-family="Helvetica,sans-Serif" font-size="14.00">Peru</text>
</g>
<!-- s3&#45;&#45;s1 -->
<g id="edge19" class="edge"><title>s3&#45;&#45;s1</title>
<path fill="none" stroke="blue" d="M408.958,-146.063C425.762,-140.924 447.914,-134.15 466.604,-128.435"/>
</g>
<!-- s3&#45;&#45;s2 -->
<g id="edge20" class="edge"><title>s3&#45;&#45;s2</title>
<path fill="none" stroke="blue" d="M412.306,-154.123C457.055,-154.31 542.145,-154.666 589.003,-154.862"/>
</g>
<!-- s3&#45;&#45;s4 -->
<g id="edge21" class="edge"><title>s3&#45;&#45;s4</title>
<path fill="none" stroke="blue" d="M408.958,-161.937C425.207,-166.906 446.455,-173.404 464.74,-178.995"/>
</g>
<!-- s4&#45;&#45;s2 -->
<g id="edge22" class="edge"><title>s4&#45;&#45;s2</title>
<path fill="none" stroke="blue" d="M545.272,-178.812C561.047,-173.916 578.892,-168.378 593.4,-163.876"/>
</g>
<!-- e1 -->
<g id="node14" class="node"><title>e1</title>
<ellipse fill="white" stroke="white" cx="972" cy="-323" rx="39.6962" ry="26.7407"/>
<text text-anchor="middle" x="972" y="-326.8" font-family="Helvetica,sans-Serif" font-size="14.00">Great</text>
<text text-anchor="middle" x="972" y="-311.8" font-family="Helvetica,sans-Serif" font-size="14.00">Britain</text>
</g>
<!-- e3 -->
<g id="node16" class="node"><title>e3</title>
<ellipse fill="white" stroke="white" cx="1231" cy="-328" rx="50.41" ry="26.7407"/>
<text text-anchor="middle" x="1231" y="-331.8" font-family="Helvetica,sans-Serif" font-size="14.00">Northern</text>
<text text-anchor="middle" x="1231" y="-316.8" font-family="Helvetica,sans-Serif" font-size="14.00">Europe</text>
</g>
<!-- e1&#45;&#45;e3 -->
<g id="edge27" class="edge"><title>e1&#45;&#45;e3</title>
<path fill="none" stroke="blue" d="M1011.75,-323.754C1056.91,-324.632 1131.59,-326.085 1180.8,-327.043"/>
</g>
<!-- e4 -->
<g id="node17" class="node"><title>e4</title>
<ellipse fill="white" stroke="white" cx="1091" cy="-365" rx="60.3893" ry="18"/>
<text text-anchor="middle" x="1091" y="-361.3" font-family="Helvetica,sans-Serif" font-size="14.00">Scandinavia</text>
</g>
<!-- e1&#45;&#45;e4 -->
<g id="edge28" class="edge"><title>e1&#45;&#45;e4</title>
<path fill="none" stroke="blue" d="M1007.16,-335.261C1021.05,-340.249 1037.18,-346.037 1051.49,-351.174"/>
</g>
<!-- e7 -->
<g id="node20" class="node"><title>e7</title>
<ellipse fill="white" stroke="white" cx="1091" cy="-282" rx="48.5816" ry="26.7407"/>
<text text-anchor="middle" x="1091" y="-285.8" font-family="Helvetica,sans-Serif" font-size="14.00">Western</text>
<text text-anchor="middle" x="1091" y="-270.8" font-family="Helvetica,sans-Serif" font-size="14.00">Europe</text>
</g>
<!-- e1&#45;&#45;e7 -->
<g id="edge29" class="edge"><title>e1&#45;&#45;e7</title>
<path fill="none" stroke="blue" d="M1007.47,-310.92C1020.68,-306.291 1035.87,-300.967 1049.59,-296.16"/>
</g>
<!-- e2&#45;&#45;e1 -->
<g id="edge25" class="edge"><title>e2&#45;&#45;e1</title>
<path fill="none" stroke="blue" d="M902.579,-352.626C913.755,-347.786 926.641,-342.207 938.194,-337.205"/>
</g>
<!-- e2&#45;&#45;e4 -->
<g id="edge26" class="edge"><title>e2&#45;&#45;e4</title>
<path fill="none" stroke="blue" d="M913.618,-365C946.258,-365 993.054,-365 1030.24,-365"/>
</g>
<!-- e5 -->
<g id="node18" class="node"><title>e5</title>
<ellipse fill="white" stroke="white" cx="1362" cy="-282" rx="51.7379" ry="26.7407"/>
<text text-anchor="middle" x="1362" y="-285.8" font-family="Helvetica,sans-Serif" font-size="14.00">Southern</text>
<text text-anchor="middle" x="1362" y="-270.8" font-family="Helvetica,sans-Serif" font-size="14.00">Europe</text>
</g>
<!-- e3&#45;&#45;e5 -->
<g id="edge34" class="edge"><title>e3&#45;&#45;e5</title>
<path fill="none" stroke="blue" d="M1273.17,-313.319C1287.77,-308.113 1304.21,-302.249 1318.89,-297.016"/>
</g>
<!-- e6 -->
<g id="node19" class="node"><title>e6</title>
<ellipse fill="white" stroke="white" cx="1474" cy="-328" rx="42.4939" ry="18"/>
<text text-anchor="middle" x="1474" y="-324.3" font-family="Helvetica,sans-Serif" font-size="14.00">Ukraine</text>
</g>
<!-- e3&#45;&#45;e6 -->
<g id="edge35" class="edge"><title>e3&#45;&#45;e6</title>
<path fill="none" stroke="blue" d="M1281.35,-328C1325.69,-328 1390.06,-328 1431.73,-328"/>
</g>
<!-- e4&#45;&#45;e3 -->
<g id="edge32" class="edge"><title>e4&#45;&#45;e3</title>
<path fill="none" stroke="blue" d="M1136.42,-353.089C1152.18,-348.864 1169.91,-344.112 1185.66,-339.888"/>
</g>
<!-- e4&#45;&#45;e6 -->
<g id="edge33" class="edge"><title>e4&#45;&#45;e6</title>
<path fill="none" stroke="blue" d="M1151.23,-367.208C1191.11,-368.009 1244.84,-367.756 1292,-363 1342.95,-357.862 1400.92,-345.474 1437.23,-336.907"/>
</g>
<!-- e5&#45;&#45;e6 -->
<g id="edge36" class="edge"><title>e5&#45;&#45;e6</title>
<path fill="none" stroke="blue" d="M1402.4,-298.477C1415.84,-304.097 1430.63,-310.284 1443.19,-315.535"/>
</g>
<!-- a1 -->
<g id="node21" class="node"><title>a1</title>
<ellipse fill="white" stroke="white" cx="1699" cy="-310" rx="58.4896" ry="18"/>
<text text-anchor="middle" x="1699" y="-306.3" font-family="Helvetica,sans-Serif" font-size="14.00">Afghanistan</text>
</g>
<!-- e6&#45;&#45;a1 -->
<g id="edge39" class="edge"><title>e6&#45;&#45;a1</title>
<path fill="none" stroke="red" d="M1515.89,-325.129C1545.39,-323.012 1586.17,-319.991 1622,-317 1628.73,-316.438 1635.8,-315.822 1642.8,-315.196"/>
</g>
<!-- a7 -->
<g id="node27" class="node"><title>a7</title>
<ellipse fill="white" stroke="white" cx="1581" cy="-282" rx="41.0244" ry="26.7407"/>
<text text-anchor="middle" x="1581" y="-285.8" font-family="Helvetica,sans-Serif" font-size="14.00">Middle</text>
<text text-anchor="middle" x="1581" y="-270.8" font-family="Helvetica,sans-Serif" font-size="14.00">East</text>
</g>
<!-- e6&#45;&#45;a7 -->
<g id="edge38" class="edge"><title>e6&#45;&#45;a7</title>
<path fill="none" stroke="red" d="M1503.97,-315.309C1517.2,-309.511 1532.95,-302.612 1546.67,-296.601"/>
</g>
<!-- a11 -->
<g id="node31" class="node"><title>a11</title>
<ellipse fill="white" stroke="white" cx="1804" cy="-347" rx="27.0966" ry="18"/>
<text text-anchor="middle" x="1804" y="-343.3" font-family="Helvetica,sans-Serif" font-size="14.00">Ural</text>
</g>
<!-- e6&#45;&#45;a11 -->
<g id="edge37" class="edge"><title>e6&#45;&#45;a11</title>
<path fill="none" stroke="red" d="M1516.21,-330.387C1584.52,-334.344 1719.32,-342.153 1776.43,-345.461"/>
</g>
<!-- e7&#45;&#45;e3 -->
<g id="edge30" class="edge"><title>e7&#45;&#45;e3</title>
<path fill="none" stroke="blue" d="M1133.03,-295.677C1150.35,-301.45 1170.5,-308.167 1187.93,-313.977"/>
</g>
<!-- e7&#45;&#45;e5 -->
<g id="edge31" class="edge"><title>e7&#45;&#45;e5</title>
<path fill="none" stroke="blue" d="M1140.09,-282C1188,-282 1261.26,-282 1310.12,-282"/>
</g>
<!-- a2 -->
<g id="node22" class="node"><title>a2</title>
<ellipse fill="white" stroke="white" cx="1996" cy="-310" rx="34.394" ry="18"/>
<text text-anchor="middle" x="1996" y="-306.3" font-family="Helvetica,sans-Serif" font-size="14.00">China</text>
</g>
<!-- a1&#45;&#45;a2 -->
<g id="edge56" class="edge"><title>a1&#45;&#45;a2</title>
<path fill="none" stroke="blue" d="M1757.58,-310C1818.28,-310 1911.83,-310 1961.44,-310"/>
</g>
<!-- a3 -->
<g id="node23" class="node"><title>a3</title>
<ellipse fill="white" stroke="white" cx="1889" cy="-273" rx="30.5947" ry="18"/>
<text text-anchor="middle" x="1889" y="-269.3" font-family="Helvetica,sans-Serif" font-size="14.00">India</text>
</g>
<!-- a1&#45;&#45;a3 -->
<g id="edge57" class="edge"><title>a1&#45;&#45;a3</title>
<path fill="none" stroke="blue" d="M1748.9,-300.375C1784.15,-293.438 1830.49,-284.318 1859.77,-278.556"/>
</g>
<!-- a1&#45;&#45;a11 -->
<g id="edge58" class="edge"><title>a1&#45;&#45;a11</title>
<path fill="none" stroke="blue" d="M1737.77,-323.567C1751.78,-328.6 1767.25,-334.157 1779.61,-338.597"/>
</g>
<!-- a8 -->
<g id="node28" class="node"><title>a8</title>
<ellipse fill="white" stroke="white" cx="2112" cy="-327" rx="47.3916" ry="18"/>
<text text-anchor="middle" x="2112" y="-323.3" font-family="Helvetica,sans-Serif" font-size="14.00">Mongolia</text>
</g>
<!-- a2&#45;&#45;a8 -->
<g id="edge67" class="edge"><title>a2&#45;&#45;a8</title>
<path fill="none" stroke="blue" d="M2029.36,-314.826C2041.21,-316.593 2054.82,-318.622 2067.48,-320.511"/>
</g>
<!-- a9 -->
<g id="node29" class="node"><title>a9</title>
<ellipse fill="white" stroke="white" cx="2112" cy="-273" rx="31.3957" ry="18"/>
<text text-anchor="middle" x="2112" y="-269.3" font-family="Helvetica,sans-Serif" font-size="14.00">Siam</text>
</g>
<!-- a2&#45;&#45;a9 -->
<g id="edge68" class="edge"><title>a2&#45;&#45;a9</title>
<path fill="none" stroke="blue" d="M2025.77,-300.663C2043.71,-294.84 2066.64,-287.397 2084.2,-281.698"/>
</g>
<!-- a3&#45;&#45;a2 -->
<g id="edge61" class="edge"><title>a3&#45;&#45;a2</title>
<path fill="none" stroke="blue" d="M1915.69,-282.051C1931.23,-287.528 1951.06,-294.515 1967,-300.133"/>
</g>
<!-- a3&#45;&#45;a9 -->
<g id="edge62" class="edge"><title>a3&#45;&#45;a9</title>
<path fill="none" stroke="blue" d="M1919.81,-273C1961.87,-273 2038.23,-273 2080.61,-273"/>
</g>
<!-- a4 -->
<g id="node24" class="node"><title>a4</title>
<ellipse fill="white" stroke="white" cx="2228" cy="-364" rx="37.8943" ry="18"/>
<text text-anchor="middle" x="2228" y="-360.3" font-family="Helvetica,sans-Serif" font-size="14.00">Irkutsk</text>
</g>
<!-- a6 -->
<g id="node26" class="node"><title>a6</title>
<ellipse fill="white" stroke="white" cx="2353" cy="-345" rx="56.59" ry="18"/>
<text text-anchor="middle" x="2353" y="-341.3" font-family="Helvetica,sans-Serif" font-size="14.00">Kamchatka</text>
</g>
<!-- a4&#45;&#45;a6 -->
<g id="edge74" class="edge"><title>a4&#45;&#45;a6</title>
<path fill="none" stroke="blue" d="M2264.25,-358.555C2275.89,-356.757 2289.08,-354.72 2301.62,-352.782"/>
</g>
<!-- a5 -->
<g id="node25" class="node"><title>a5</title>
<ellipse fill="white" stroke="white" cx="2228" cy="-290" rx="35.9954" ry="18"/>
<text text-anchor="middle" x="2228" y="-286.3" font-family="Helvetica,sans-Serif" font-size="14.00">Japan</text>
</g>
<!-- a5&#45;&#45;a6 -->
<g id="edge75" class="edge"><title>a5&#45;&#45;a6</title>
<path fill="none" stroke="blue" d="M2255.39,-301.799C2274.16,-310.195 2299.51,-321.527 2319.53,-330.479"/>
</g>
<!-- a7&#45;&#45;a1 -->
<g id="edge53" class="edge"><title>a7&#45;&#45;a1</title>
<path fill="none" stroke="blue" d="M1619.66,-291.091C1630.11,-293.614 1641.58,-296.38 1652.43,-299"/>
</g>
<!-- a7&#45;&#45;a3 -->
<g id="edge54" class="edge"><title>a7&#45;&#45;a3</title>
<path fill="none" stroke="blue" d="M1622,-280.823C1684.21,-278.994 1802.73,-275.508 1858.1,-273.879"/>
</g>
<!-- f2 -->
<g id="node34" class="node"><title>f2</title>
<ellipse fill="white" stroke="white" cx="1362" cy="-167" rx="36.5405" ry="26.7407"/>
<text text-anchor="middle" x="1362" y="-170.8" font-family="Helvetica,sans-Serif" font-size="14.00">East</text>
<text text-anchor="middle" x="1362" y="-155.8" font-family="Helvetica,sans-Serif" font-size="14.00">Africa</text>
</g>
<!-- a7&#45;&#45;f2 -->
<g id="edge55" class="edge"><title>a7&#45;&#45;f2</title>
<path fill="none" stroke="red" d="M1553.54,-262.217C1544.4,-255.75 1533.95,-248.757 1524,-243 1480.53,-217.839 1427.37,-193.998 1394.35,-179.94"/>
</g>
<!-- a8&#45;&#45;a4 -->
<g id="edge69" class="edge"><title>a8&#45;&#45;a4</title>
<path fill="none" stroke="blue" d="M2148.76,-338.606C2164.04,-343.565 2181.69,-349.295 2196.36,-354.056"/>
</g>
<!-- a8&#45;&#45;a5 -->
<g id="edge70" class="edge"><title>a8&#45;&#45;a5</title>
<path fill="none" stroke="blue" d="M2148.76,-315.394C2164.43,-310.308 2182.6,-304.41 2197.48,-299.58"/>
</g>
<!-- a8&#45;&#45;a6 -->
<g id="edge71" class="edge"><title>a8&#45;&#45;a6</title>
<path fill="none" stroke="blue" d="M2159.27,-329.22C2192.37,-330.95 2237.96,-333.625 2278,-337 2284.95,-337.586 2292.27,-338.281 2299.48,-339.013"/>
</g>
<!-- a10 -->
<g id="node30" class="node"><title>a10</title>
<ellipse fill="white" stroke="white" cx="1889" cy="-367" rx="38.9931" ry="18"/>
<text text-anchor="middle" x="1889" y="-363.3" font-family="Helvetica,sans-Serif" font-size="14.00">Siberia</text>
</g>
<!-- a10&#45;&#45;a2 -->
<g id="edge63" class="edge"><title>a10&#45;&#45;a2</title>
<path fill="none" stroke="blue" d="M1914.88,-353.492C1931.99,-344.208 1954.55,-331.957 1971.38,-322.824"/>
</g>
<!-- a10&#45;&#45;a4 -->
<g id="edge64" class="edge"><title>a10&#45;&#45;a4</title>
<path fill="none" stroke="blue" d="M1928,-366.662C1993.24,-366.081 2125.73,-364.901 2190.16,-364.328"/>
</g>
<!-- a10&#45;&#45;a8 -->
<g id="edge65" class="edge"><title>a10&#45;&#45;a8</title>
<path fill="none" stroke="blue" d="M1925.51,-360.573C1964.55,-353.506 2027.25,-342.159 2068.78,-334.641"/>
</g>
<!-- a12 -->
<g id="node32" class="node"><title>a12</title>
<ellipse fill="white" stroke="white" cx="2112" cy="-401" rx="42.7926" ry="18"/>
<text text-anchor="middle" x="2112" y="-397.3" font-family="Helvetica,sans-Serif" font-size="14.00">Yakutsk</text>
</g>
<!-- a10&#45;&#45;a12 -->
<g id="edge66" class="edge"><title>a10&#45;&#45;a12</title>
<path fill="none" stroke="blue" d="M1926.49,-372.614C1966.46,-378.763 2030.33,-388.59 2071.47,-394.918"/>
</g>
<!-- a11&#45;&#45;a2 -->
<g id="edge59" class="edge"><title>a11&#45;&#45;a2</title>
<path fill="none" stroke="blue" d="M1830.62,-342.01C1865.06,-335.303 1926.25,-323.388 1963.47,-316.14"/>
</g>
<!-- a11&#45;&#45;a10 -->
<g id="edge60" class="edge"><title>a11&#45;&#45;a10</title>
<path fill="none" stroke="blue" d="M1829.9,-353.001C1837.54,-354.842 1846.08,-356.899 1854.21,-358.858"/>
</g>
<!-- a12&#45;&#45;a4 -->
<g id="edge72" class="edge"><title>a12&#45;&#45;a4</title>
<path fill="none" stroke="blue" d="M2146.59,-390.099C2162.35,-384.983 2181,-378.929 2196.38,-373.94"/>
</g>
<!-- a12&#45;&#45;a6 -->
<g id="edge73" class="edge"><title>a12&#45;&#45;a6</title>
<path fill="none" stroke="blue" d="M2154.37,-404.033C2188.38,-405.227 2237.39,-403.934 2278,-391 2297.6,-384.756 2317.26,-372.164 2331.39,-361.731"/>
</g>
<!-- f1 -->
<g id="node33" class="node"><title>f1</title>
<ellipse fill="white" stroke="white" cx="1231" cy="-108" rx="37.8943" ry="18"/>
<text text-anchor="middle" x="1231" y="-104.3" font-family="Helvetica,sans-Serif" font-size="14.00">Congo</text>
</g>
<!-- f1&#45;&#45;f2 -->
<g id="edge48" class="edge"><title>f1&#45;&#45;f2</title>
<path fill="none" stroke="blue" d="M1259.21,-120.166C1269.5,-124.785 1281.3,-130.111 1292,-135 1304.73,-140.816 1318.75,-147.303 1330.81,-152.906"/>
</g>
<!-- f3 -->
<g id="node35" class="node"><title>f3</title>
<ellipse fill="white" stroke="white" cx="1231" cy="-162" rx="33.5952" ry="18"/>
<text text-anchor="middle" x="1231" y="-158.3" font-family="Helvetica,sans-Serif" font-size="14.00">Egypt</text>
</g>
<!-- f3&#45;&#45;e5 -->
<g id="edge52" class="edge"><title>f3&#45;&#45;e5</title>
<path fill="none" stroke="red" d="M1248.7,-177.701C1264.47,-192.51 1288.8,-215.311 1310,-235 1318.47,-242.866 1327.76,-251.442 1336.06,-259.089"/>
</g>
<!-- f3&#45;&#45;a7 -->
<g id="edge51" class="edge"><title>f3&#45;&#45;a7</title>
<path fill="none" stroke="red" d="M1255.88,-149.772C1270.96,-142.746 1291.11,-134.617 1310,-131 1355.4,-122.309 1369.33,-119.114 1414,-131 1468.44,-145.487 1483.24,-155.101 1524,-194 1542.86,-212.004 1558.22,-237.598 1568.05,-256.546"/>
</g>
<!-- f3&#45;&#45;f2 -->
<g id="edge50" class="edge"><title>f3&#45;&#45;f2</title>
<path fill="none" stroke="blue" d="M1264.89,-163.275C1283.25,-163.986 1306.15,-164.874 1325,-165.605"/>
</g>
<!-- f4 -->
<g id="node36" class="node"><title>f4</title>
<ellipse fill="white" stroke="white" cx="1231" cy="-54" rx="61.1893" ry="18"/>
<text text-anchor="middle" x="1231" y="-50.3" font-family="Helvetica,sans-Serif" font-size="14.00">Madagascar</text>
</g>
<!-- f4&#45;&#45;f2 -->
<g id="edge49" class="edge"><title>f4&#45;&#45;f2</title>
<path fill="none" stroke="blue" d="M1270.35,-67.9918C1277.91,-71.6274 1285.5,-75.9656 1292,-81 1314.25,-98.2246 1333.7,-124.024 1346.23,-142.872"/>
</g>
<!-- f5&#45;&#45;e5 -->
<g id="edge44" class="edge"><title>f5&#45;&#45;e5</title>
<path fill="none" stroke="red" d="M1122.32,-176.147C1136.73,-182.834 1154.23,-190.892 1170,-198 1222.51,-221.663 1283.47,-248.336 1322.13,-265.151"/>
</g>
<!-- f5&#45;&#45;e7 -->
<g id="edge43" class="edge"><title>f5&#45;&#45;e7</title>
<path fill="none" stroke="red" d="M1091,-188.719C1091,-210.946 1091,-233.173 1091,-255.4"/>
</g>
<!-- f5&#45;&#45;f1 -->
<g id="edge40" class="edge"><title>f5&#45;&#45;f1</title>
<path fill="none" stroke="blue" d="M1123.66,-149.611C1147.05,-140.457 1178.65,-128.095 1201.31,-119.228"/>
</g>
<!-- f5&#45;&#45;f2 -->
<g id="edge41" class="edge"><title>f5&#45;&#45;f2</title>
<path fill="none" stroke="blue" d="M1122.88,-175.348C1136.96,-180.739 1154.03,-186.314 1170,-189 1223.47,-197.993 1238.42,-197.335 1292,-189 1304.42,-187.067 1317.67,-183.288 1329.2,-179.399"/>
</g>
<!-- f5&#45;&#45;f3 -->
<g id="edge42" class="edge"><title>f5&#45;&#45;f3</title>
<path fill="none" stroke="blue" d="M1127.9,-162C1149.3,-162 1176.27,-162 1197.12,-162"/>
</g>
<!-- f6 -->
<g id="node38" class="node"><title>f6</title>
<ellipse fill="white" stroke="white" cx="1091" cy="-54" rx="37.4533" ry="26.7407"/>
<text text-anchor="middle" x="1091" y="-57.8" font-family="Helvetica,sans-Serif" font-size="14.00">South</text>
<text text-anchor="middle" x="1091" y="-42.8" font-family="Helvetica,sans-Serif" font-size="14.00">Africa</text>
</g>
<!-- f6&#45;&#45;f1 -->
<g id="edge45" class="edge"><title>f6&#45;&#45;f1</title>
<path fill="none" stroke="blue" d="M1124.01,-66.5244C1147.26,-75.6221 1178.46,-87.833 1200.99,-96.6469"/>
</g>
<!-- f6&#45;&#45;f2 -->
<g id="edge46" class="edge"><title>f6&#45;&#45;f2</title>
<path fill="none" stroke="blue" d="M1121.99,-38.675C1163.46,-19.8356 1239.19,5.84721 1292,-27 1332.04,-51.9026 1349.52,-107.63 1356.62,-140.775"/>
</g>
<!-- f6&#45;&#45;f4 -->
<g id="edge47" class="edge"><title>f6&#45;&#45;f4</title>
<path fill="none" stroke="blue" d="M1128.62,-54C1141.24,-54 1155.72,-54 1169.72,-54"/>
</g>
<!-- u1 -->
<g id="node39" class="node"><title>u1</title>
<ellipse fill="white" stroke="white" cx="2353" cy="-163" rx="50.41" ry="26.7407"/>
<text text-anchor="middle" x="2353" y="-166.8" font-family="Helvetica,sans-Serif" font-size="14.00">Eastern</text>
<text text-anchor="middle" x="2353" y="-151.8" font-family="Helvetica,sans-Serif" font-size="14.00">Australia</text>
</g>
<!-- u2 -->
<g id="node40" class="node"><title>u2</title>
<ellipse fill="white" stroke="white" cx="1996" cy="-182" rx="50.0912" ry="18"/>
<text text-anchor="middle" x="1996" y="-178.3" font-family="Helvetica,sans-Serif" font-size="14.00">Indonesia</text>
</g>
<!-- u2&#45;&#45;a9 -->
<g id="edge78" class="edge"><title>u2&#45;&#45;a9</title>
<path fill="none" stroke="red" d="M2017.64,-198.479C2039.08,-215.586 2072.27,-242.086 2092.77,-258.445"/>
</g>
<!-- u3 -->
<g id="node41" class="node"><title>u3</title>
<ellipse fill="white" stroke="white" cx="2112" cy="-153" rx="43.6818" ry="26.7407"/>
<text text-anchor="middle" x="2112" y="-156.8" font-family="Helvetica,sans-Serif" font-size="14.00">New</text>
<text text-anchor="middle" x="2112" y="-141.8" font-family="Helvetica,sans-Serif" font-size="14.00">Guinea</text>
</g>
<!-- u2&#45;&#45;u3 -->
<g id="edge76" class="edge"><title>u2&#45;&#45;u3</title>
<path fill="none" stroke="blue" d="M2037.19,-171.776C2048.22,-168.971 2060.17,-165.932 2071.17,-163.132"/>
</g>
<!-- u4 -->
<g id="node42" class="node"><title>u4</title>
<ellipse fill="white" stroke="white" cx="2228" cy="-173" rx="50.41" ry="26.7407"/>
<text text-anchor="middle" x="2228" y="-176.8" font-family="Helvetica,sans-Serif" font-size="14.00">Western</text>
<text text-anchor="middle" x="2228" y="-161.8" font-family="Helvetica,sans-Serif" font-size="14.00">Australia</text>
</g>
<!-- u2&#45;&#45;u4 -->
<g id="edge77" class="edge"><title>u2&#45;&#45;u4</title>
<path fill="none" stroke="blue" d="M2043.86,-187.356C2076.51,-190.201 2121.02,-192.31 2160,-188 2167.35,-187.188 2175.06,-185.889 2182.54,-184.387"/>
</g>
<!-- u3&#45;&#45;u1 -->
<g id="edge79" class="edge"><title>u3&#45;&#45;u1</title>
<path fill="none" stroke="blue" d="M2151.9,-141.808C2160.43,-139.809 2169.46,-138.035 2178,-137 2222.12,-131.65 2234.19,-129.527 2278,-137 2289.68,-138.992 2301.97,-142.633 2313.1,-146.572"/>
</g>
<!-- u3&#45;&#45;u4 -->
<g id="edge80" class="edge"><title>u3&#45;&#45;u4</title>
<path fill="none" stroke="blue" d="M2154.48,-160.277C2162.76,-161.729 2171.5,-163.264 2179.95,-164.746"/>
</g>
<!-- u4&#45;&#45;u1 -->
<g id="edge81" class="edge"><title>u4&#45;&#45;u1</title>
<path fill="none" stroke="blue" d="M2277.97,-169.019C2286.27,-168.344 2294.9,-167.642 2303.2,-166.967"/>
</g>
</g>
</svg>
